<svg width="616" height="141" viewBox="0 0 616 141" fill="none" xmlns="http://www.w3.org/2000/svg">
<path d="M83.7794 104.099C83.5567 104.092 83.334 104.07 83.1113 104.047C77.3063 103.424 73.1048 98.2126 73.7283 92.4002L80.8398 26.1773C81.4634 20.3723 86.6819 16.1633 92.4869 16.7943C98.2919 17.4178 102.493 22.629 101.87 28.4414L94.7881 95.6961C94.1868 101.278 89.3097 104.352 83.7794 104.099Z" fill="#6F85AC"/>
<path d="M84.0908 99.675C78.9984 99.675 74.7226 96.0896 73.8763 90.9007L60.9302 12.3477C59.9948 6.57986 63.9069 1.15346 69.6748 0.218128C75.4501 -0.717203 80.8691 3.19486 81.8118 8.96273L94.5427 87.4118C95.478 93.1797 91.566 98.6061 85.7981 99.5488C85.2265 99.6453 84.6549 99.6899 84.0908 99.6899V99.675Z" fill="#5779B5"/>
<path d="M85.8354 63.6128L53.2844 9.92034C50.2557 4.92448 43.7529 3.33589 38.7571 6.35716C33.7612 9.38585 32.1652 15.8886 35.1939 20.8845L49.1125 43.8372C32.2617 43.0206 15.5668 51.1417 6.12441 65.8917C3.66731 69.7296 1.83375 73.753 0.571796 77.8654C-1.95211 86.1127 6.35453 93.5879 14.3939 90.4702L14.7354 90.3365C17.675 89.2008 19.9539 86.7957 20.8967 83.7892C21.9879 80.3003 23.8289 76.9227 26.5903 73.8792C33.9839 65.7136 45.7943 62.7443 56.1052 66.6266C72.4661 72.7879 78.7907 92.415 69.1924 106.957C62.2368 117.491 48.5706 121.789 36.827 117.172C33.056 115.687 29.8343 113.475 27.2362 110.78C24.2446 107.677 19.7684 106.534 15.7524 108.093L15.4851 108.197C8.59634 110.869 6.55495 119.688 11.6176 125.063C15.834 129.539 21.0006 133.288 27.0061 135.982C49.0383 145.855 75.4428 137.593 87.9065 116.919C98.0689 100.061 96.9183 82.0893 85.8354 63.6128Z" fill="#91B3F0"/>
<path d="M29.7665 96.1044C29.0465 96.1489 28.3115 95.8668 27.7993 95.2804C26.9382 94.2783 27.057 92.7787 28.0517 91.9176C33.7899 86.9812 39.3425 89.223 41.473 91.0937C42.4603 91.9622 42.5568 93.4691 41.6883 94.4564C40.8272 95.4363 39.3351 95.5402 38.3404 94.694C37.8059 94.2486 34.9777 92.2443 31.1547 95.5328C30.7464 95.8817 30.2565 96.0747 29.7591 96.1044H29.7665Z" fill="#91B3F0"/>
<path d="M60.1289 96.6834C57.2709 96.869 54.7099 94.8202 54.3091 91.9325L53.4851 85.9865C53.0694 82.9652 55.1701 80.1815 58.1914 79.7584C61.2052 79.3427 63.9964 81.4435 64.4195 84.4647L65.2435 90.4108C65.6592 93.432 63.5584 96.2158 60.5372 96.6389C60.4035 96.6612 60.2625 96.6686 60.1289 96.6834Z" fill="#91B3F0"/>
<path d="M252.488 100.92C252.488 95.0399 249.428 90.74 243.388 88.15C239.328 86.41 234.248 85.53 228.278 85.53C220.828 85.53 215.068 86.74 210.908 88.65C204.248 91.71 202.108 97.89 201.418 101.64C201.118 103.27 202.378 104.76 204.028 104.76H215.188C216.438 104.76 217.488 103.88 217.778 102.66C217.998 101.71 218.478 100.64 219.468 99.8699C221.028 98.6699 223.178 97.7499 226.388 97.7499C229.218 97.7499 231.348 98.0199 232.728 98.5499C234.778 99.3199 235.728 100.67 235.728 102.81C235.728 103.85 235.298 104.59 234.358 105.14C233.928 105.4 232.998 105.76 231.028 105.98L217.128 107.78C211.768 108.43 207.418 110.16 204.218 112.94C200.958 115.77 199.308 119.72 199.308 124.67C199.308 129.62 201.318 133.8 205.278 136.6C208.638 138.96 212.918 140.15 217.998 140.15C222.808 140.15 227.008 139.29 230.478 137.61C232.278 136.78 234.268 135.45 236.378 133.65C236.378 134.39 236.388 135.32 236.398 136.19C236.408 137.64 237.598 138.81 239.048 138.81H249.858C251.328 138.81 252.508 137.62 252.508 136.15L252.458 100.89L252.488 100.92ZM235.738 114.87V119.94C235.738 122.64 234.508 124.77 231.958 126.46C229.348 128.19 226.248 129.07 222.748 129.07C221.078 129.07 219.638 128.67 218.448 127.88C217.058 126.96 216.388 125.63 216.388 123.83C216.388 121.6 217.268 120 219.078 118.95C220.378 118.19 222.628 117.59 225.788 117.16C229.078 116.72 231.588 116.25 233.248 115.76C234.238 115.47 235.058 115.18 235.738 114.88V114.87Z" fill="#91B3F0"/>
<path d="M313.308 91.4299C309.358 88.3999 304.248 86.8599 298.138 86.8599C294.288 86.8599 290.848 87.5399 287.928 88.8699C285.528 89.9599 283.238 91.7299 281.078 94.1299V90.83C281.078 89.37 279.888 88.1799 278.428 88.1799H267.318C265.858 88.1799 264.668 89.37 264.668 90.83V137.5C264.668 138.96 265.858 140.15 267.318 140.15H279.088C280.548 140.15 281.738 138.96 281.738 137.5V110.47C281.738 106.96 282.768 104.34 284.888 102.47C287.008 100.6 289.758 99.65 293.068 99.65C297.088 99.65 299.788 100.73 301.098 102.87C301.888 104.12 302.298 106.11 302.298 108.77V137.5C302.298 138.96 303.488 140.15 304.948 140.15H316.718C318.178 140.15 319.368 138.96 319.368 137.5V104.51C319.368 98.9099 317.328 94.4999 313.308 91.4199V91.4299Z" fill="#91B3F0"/>
<path d="M346.958 70.6799H335.178C333.715 70.6799 332.528 71.8664 332.528 73.33V137.51C332.528 138.974 333.715 140.16 335.178 140.16H346.958C348.422 140.16 349.608 138.974 349.608 137.51V73.33C349.608 71.8664 348.422 70.6799 346.958 70.6799Z" fill="#91B3F0"/>
<path d="M472.778 91.4299C468.828 88.3999 463.718 86.8599 457.608 86.8599C453.458 86.8599 449.718 87.65 446.498 89.21C444.278 90.28 442.508 91.5499 441.208 92.9899V73.33C441.208 71.87 440.018 70.6799 438.558 70.6799H426.788C425.328 70.6799 424.138 71.87 424.138 73.33V137.51C424.138 138.97 425.328 140.16 426.788 140.16H438.558C440.018 140.16 441.208 138.97 441.208 137.51V110.48C441.208 106.97 442.238 104.35 444.358 102.48C446.478 100.61 449.228 99.6599 452.538 99.6599C456.558 99.6599 459.258 100.74 460.568 102.88C461.358 104.13 461.768 106.12 461.768 108.78V137.51C461.768 138.97 462.958 140.16 464.418 140.16H476.188C477.648 140.16 478.838 138.97 478.838 137.51V104.52C478.838 98.92 476.798 94.5099 472.778 91.4299Z" fill="#91B3F0"/>
<path d="M412.098 100.92C412.098 95.0399 409.038 90.74 402.998 88.15C398.938 86.41 393.858 85.53 387.888 85.53C380.438 85.53 374.678 86.74 370.518 88.65C363.858 91.71 361.718 97.89 361.028 101.64C360.728 103.27 361.988 104.76 363.638 104.76H374.798C376.048 104.76 377.098 103.88 377.388 102.66C377.608 101.71 378.088 100.64 379.078 99.8699C380.638 98.6699 382.788 97.7499 385.998 97.7499C388.828 97.7499 390.958 98.0199 392.338 98.5499C394.388 99.3199 395.338 100.67 395.338 102.81C395.338 103.85 394.908 104.59 393.968 105.14C393.538 105.4 392.608 105.76 390.638 105.98L376.738 107.78C371.378 108.43 367.028 110.16 363.828 112.94C360.568 115.77 358.918 119.72 358.918 124.67C358.918 129.62 360.928 133.8 364.888 136.6C368.248 138.96 372.528 140.15 377.608 140.15C382.418 140.15 386.618 139.29 390.088 137.61C391.888 136.78 393.878 135.45 395.988 133.65C395.988 134.39 395.998 135.32 396.008 136.19C396.018 137.64 397.208 138.81 398.658 138.81H409.468C410.938 138.81 412.118 137.62 412.118 136.15L412.068 100.89L412.098 100.92ZM395.348 114.87V119.94C395.348 122.64 394.118 124.77 391.568 126.46C388.958 128.19 385.858 129.07 382.358 129.07C380.688 129.07 379.248 128.67 378.058 127.88C376.668 126.96 375.998 125.63 375.998 123.83C375.998 121.6 376.878 120 378.688 118.95C379.988 118.19 382.238 117.59 385.398 117.16C388.688 116.72 391.198 116.25 392.858 115.76C393.848 115.47 394.668 115.18 395.348 114.88V114.87Z" fill="#91B3F0"/>
<path d="M178.038 113.45C176.858 113.45 175.828 114.23 175.498 115.36C173.668 121.64 167.868 126.22 160.998 126.22H154.918C146.578 126.22 139.818 119.46 139.818 111.12V96.1299C139.818 87.7899 146.578 81.03 154.918 81.03H160.998C167.528 81.03 173.098 85.1799 175.198 90.9899C175.578 92.0399 176.568 92.7399 177.688 92.7399H189.778C191.548 92.7399 192.848 91.02 192.318 89.33C188.288 76.44 176.258 67.08 162.028 67.08H153.038C135.508 67.08 121.298 81.2899 121.298 98.8199V108.42C121.298 125.95 135.508 140.16 153.038 140.16H162.028C176.668 140.16 188.988 130.24 192.648 116.76C193.098 115.09 191.808 113.46 190.078 113.46H178.038V113.45Z" fill="#91B3F0"/>
<path d="M539.908 126.12L535.038 138.48C534.638 139.49 533.658 140.16 532.568 140.16H520.878C518.988 140.16 517.698 138.23 518.428 136.48L543.998 75.34C544.808 73.41 546.698 72.1499 548.788 72.1499H562.768C563.848 72.1499 564.818 72.7999 565.228 73.7999L590.828 136.5C591.538 138.24 590.258 140.15 588.368 140.15H576.148C575.028 140.15 574.038 139.45 573.658 138.4L569.208 126.11H539.898L539.908 126.12ZM544.328 114.36H564.568L554.728 87.52L544.328 114.36Z" fill="#91B3F0"/>
<path d="M503.458 126.47H495.068C493.604 126.47 492.418 127.656 492.418 129.12V137.51C492.418 138.974 493.604 140.16 495.068 140.16H503.458C504.922 140.16 506.108 138.974 506.108 137.51V129.12C506.108 127.656 504.922 126.47 503.458 126.47Z" fill="#979797"/>
<path d="M612.968 70.6799H601.188C599.725 70.6799 598.538 71.8664 598.538 73.33V137.51C598.538 138.974 599.725 140.16 601.188 140.16H612.968C614.432 140.16 615.618 138.974 615.618 137.51V73.33C615.618 71.8664 614.432 70.6799 612.968 70.6799Z" fill="#91B3F0"/>
</svg>
